# xmcd
#
# Track frame offsets: 
#        150
#        19975
#        42821
#        64560
#        86675
#        107526
#        121595
#        141739
#        161197
#        181184
#        202752
#        223481
#
# Disc length: 3170 seconds
#
# Revision: 0
# Processed by: cddbd v1.5.2PL0 Copyright (c) Steve Scherf et al.
# Submitted via: ExactAudioCopy v0.95b3
#
DISCID=a80c600c
DTITLE=Bantu Church of Christ - Uthixo Omkhulu
DYEAR=1999
DGENRE=Gospel
TTITLE0=Ndilundwndwe Emhlabeni
TTITLE1=Dumisani Uthixo
TTITLE2=Ndingowokuqala Ndingowokugqibela
TTITLE3=Wimani Enkululekweni
TTITLE4=Bongani Uyehova
TTITLE5=Umphefhumlo
TTITLE6=Uthixo Omkhulu
TTITLE7=Ndiyakuphakamisa
TTITLE8=Ubukhulu Bakho
TTITLE9=Ndithembele Kuyehova
TTITLE10=Ndihlangulwe
TTITLE11=Dumisani Uyehova
EXTD=
EXTT0=
EXTT1=
EXTT2=
EXTT3=
EXTT4=
EXTT5=
EXTT6=
EXTT7=
EXTT8=
EXTT9=
EXTT10=
EXTT11=
PLAYORDER=
